<?xml version="1.0" encoding="utf-8"?>
<!-- Generator: Adobe Illustrator 26.0.0, SVG Export Plug-In . SVG Version: 6.00 Build 0)  -->
<svg version="1.1" id="Layer_1" focusable="false" xmlns="http://www.w3.org/2000/svg" xmlns:xlink="http://www.w3.org/1999/xlink"
	 x="0px" y="0px" viewBox="0 0 448 512" style="enable-background:new 0 0 448 512;" xml:space="preserve">
<style type="text/css">
	.st0{fill:#1DBEB4;}
</style>
<path class="st0" d="M36,132h376c19.9,0,36-16.1,36-36v0c0-19.9-16.1-36-36-36H36C16.1,60,0,76.1,0,96v0C0,115.9,16.1,132,36,132z
	 M36,292h376c19.9,0,36-16.1,36-36v0c0-19.9-16.1-36-36-36H36c-19.9,0-36,16.1-36,36v0C0,275.9,16.1,292,36,292z M36,452h376
	c19.9,0,36-16.1,36-36v0c0-19.9-16.1-36-36-36H36c-19.9,0-36,16.1-36,36v0C0,435.9,16.1,452,36,452z"/>
</svg>
